<svg width="1306" height="459" viewBox="0 0 1306 459" fill="none" xmlns="http://www.w3.org/2000/svg">
<ellipse cx="229.28" cy="229.28" rx="229.28" ry="229.28" fill="white" fill-opacity="0.75"/>
<ellipse cx="229.28" cy="229.28" rx="229.28" ry="229.28" fill="url(#paint0_linear_1063_4495)" fill-opacity="0.8"/>
<ellipse cx="229.28" cy="229.28" rx="229.28" ry="229.28" fill="url(#paint1_linear_1063_4495)" fill-opacity="0.15"/>
<path d="M229.28 3C354.251 3.00014 455.559 104.309 455.56 229.279C455.56 354.25 354.251 455.559 229.28 455.56C104.309 455.56 3 354.25 3 229.279C3.00016 104.309 104.309 3 229.28 3Z" stroke="white" stroke-opacity="0.25" stroke-width="6"/>
<path fill-rule="evenodd" clip-rule="evenodd" d="M248.666 74.1958C248.666 58.5987 261.31 45.9548 276.907 45.9548C292.504 45.9548 305.148 58.5987 305.148 74.1958C305.148 89.7928 292.504 102.437 276.907 102.437C261.31 102.437 248.666 89.7928 248.666 74.1958Z" fill="white" fill-opacity="0.9"/>
<path fill-rule="evenodd" clip-rule="evenodd" d="M248.666 74.1958C248.666 58.5987 261.31 45.9548 276.907 45.9548C292.504 45.9548 305.148 58.5987 305.148 74.1958C305.148 89.7928 292.504 102.437 276.907 102.437C261.31 102.437 248.666 89.7928 248.666 74.1958Z" fill="url(#paint2_linear_1063_4495)" fill-opacity="0.3"/>
<path d="M276.907 48.9548C290.847 48.955 302.148 60.256 302.148 74.196C302.148 88.136 290.847 99.4361 276.907 99.4363C262.967 99.4363 251.666 88.1361 251.666 74.196C251.666 60.2559 262.967 48.9548 276.907 48.9548Z" stroke="white" stroke-opacity="0.25" stroke-width="6"/>
<path fill-rule="evenodd" clip-rule="evenodd" d="M145.479 384.846C145.479 369.249 158.122 356.605 173.719 356.605C189.317 356.605 201.96 369.249 201.96 384.846C201.96 400.443 189.317 413.087 173.719 413.087C158.122 413.087 145.479 400.443 145.479 384.846Z" fill="white" fill-opacity="0.9"/>
<path fill-rule="evenodd" clip-rule="evenodd" d="M145.479 384.846C145.479 369.249 158.122 356.605 173.719 356.605C189.317 356.605 201.96 369.249 201.96 384.846C201.96 400.443 189.317 413.087 173.719 413.087C158.122 413.087 145.479 400.443 145.479 384.846Z" fill="url(#paint3_linear_1063_4495)" fill-opacity="0.3"/>
<path d="M173.72 359.605C187.66 359.605 198.961 370.906 198.961 384.846C198.961 398.786 187.66 410.087 173.72 410.087C159.78 410.087 148.479 398.786 148.479 384.846C148.479 370.906 159.78 359.605 173.72 359.605Z" stroke="white" stroke-opacity="0.25" stroke-width="6"/>
<path fill-rule="evenodd" clip-rule="evenodd" d="M252.502 104.06C242.85 94.4082 227.207 94.4082 217.556 104.06L132.232 189.383C120.333 200.486 112.893 216.307 112.893 233.866C112.893 267.459 140.126 294.692 173.719 294.692C188.765 294.692 202.534 289.23 213.153 280.18L275.278 218.056C279.944 213.389 287.508 213.389 292.174 218.056C296.841 222.723 296.841 230.286 292.174 234.953L200.417 326.71C192.793 336.409 193.451 350.491 202.392 359.432C212.043 369.084 227.687 369.084 237.339 359.432L322.977 273.794C324.251 272.519 325.486 271.2 326.797 269.962C338.547 258.872 345.881 243.152 345.881 225.719C345.881 192.126 318.648 164.893 285.054 164.893C270.949 164.893 257.965 169.694 247.648 177.751L184.401 240.997C179.735 245.664 172.171 245.664 167.504 240.997C162.838 236.33 162.838 228.767 167.504 224.1L207.971 183.634C207.983 183.621 207.981 183.6 207.967 183.59C207.952 183.58 207.95 183.559 207.963 183.546L252.502 139.006C262.154 129.355 262.154 113.711 252.502 104.06Z" fill="white" fill-opacity="0.9"/>
<path fill-rule="evenodd" clip-rule="evenodd" d="M252.502 104.06C242.85 94.4082 227.207 94.4082 217.556 104.06L132.232 189.383C120.333 200.486 112.893 216.307 112.893 233.866C112.893 267.459 140.126 294.692 173.719 294.692C188.765 294.692 202.534 289.23 213.153 280.18L275.278 218.056C279.944 213.389 287.508 213.389 292.174 218.056C296.841 222.723 296.841 230.286 292.174 234.953L200.417 326.71C192.793 336.409 193.451 350.491 202.392 359.432C212.043 369.084 227.687 369.084 237.339 359.432L322.977 273.794C324.251 272.519 325.486 271.2 326.797 269.962C338.547 258.872 345.881 243.152 345.881 225.719C345.881 192.126 318.648 164.893 285.054 164.893C270.949 164.893 257.965 169.694 247.648 177.751L184.401 240.997C179.735 245.664 172.171 245.664 167.504 240.997C162.838 236.33 162.838 228.767 167.504 224.1L207.971 183.634C207.983 183.621 207.981 183.6 207.967 183.59C207.952 183.58 207.95 183.559 207.963 183.546L252.502 139.006C262.154 129.355 262.154 113.711 252.502 104.06Z" fill="url(#paint4_linear_1063_4495)" fill-opacity="0.3"/>
<path d="M219.677 106.181C228.156 97.7015 241.9 97.7014 250.381 106.181C258.861 114.661 258.861 128.405 250.381 136.885L205.841 181.425C205.686 181.58 205.552 181.748 205.438 181.924L165.383 221.978C159.545 227.817 159.545 237.28 165.383 243.118V243.119C171.221 248.957 180.684 248.957 186.522 243.119L249.63 180.01C259.417 172.414 271.703 167.892 285.054 167.892C316.991 167.892 342.881 193.783 342.881 225.719C342.881 242.292 335.913 257.233 324.738 267.78C323.394 269.049 322.027 270.501 320.855 271.673L235.217 357.31C226.737 365.791 212.993 365.791 204.514 357.31C196.699 349.496 196.085 337.208 202.675 328.694L294.296 237.074C300.134 231.236 300.134 221.773 294.296 215.934C288.458 210.096 278.994 210.097 273.156 215.934L211.124 277.966C201.039 286.529 187.987 291.692 173.72 291.692C141.783 291.692 115.893 265.803 115.893 233.866C115.893 217.173 122.962 202.136 134.279 191.577L134.317 191.541L219.677 106.181Z" stroke="white" stroke-opacity="0.25" stroke-width="6"/>
<path d="M610.482 179.456C631.319 179.456 648.206 196.343 648.206 217.18V347.348C648.206 368.185 631.319 385.072 610.482 385.072C589.645 385.072 572.758 368.185 572.758 347.348V217.18C572.758 196.343 589.645 179.456 610.482 179.456Z" fill="#4D4655"/>
<path d="M610.482 179.456C631.319 179.456 648.206 196.343 648.206 217.18V347.348C648.206 368.185 631.319 385.072 610.482 385.072C589.645 385.072 572.758 368.185 572.758 347.348V217.18C572.758 196.343 589.645 179.456 610.482 179.456Z" fill="white" fill-opacity="0.75"/>
<path d="M610.482 179.456C631.319 179.456 648.206 196.343 648.206 217.18V347.348C648.206 368.185 631.319 385.072 610.482 385.072C589.645 385.072 572.758 368.185 572.758 347.348V217.18C572.758 196.343 589.645 179.456 610.482 179.456Z" fill="url(#paint5_linear_1063_4495)" fill-opacity="0.75"/>
<path d="M610.482 179.456C631.319 179.456 648.206 196.343 648.206 217.18V347.348C648.206 368.185 631.319 385.072 610.482 385.072C589.645 385.072 572.758 368.185 572.758 347.348V217.18C572.758 196.343 589.645 179.456 610.482 179.456Z" fill="url(#paint6_linear_1063_4495)" fill-opacity="0.2"/>
<path d="M610.481 182.456C629.662 182.456 645.206 197.999 645.206 217.179V347.348C645.206 366.528 629.662 382.072 610.481 382.072C591.301 382.072 575.758 366.528 575.758 347.348V217.179C575.758 197.999 591.301 182.456 610.481 182.456Z" stroke="white" stroke-opacity="0.5" stroke-width="6"/>
<path d="M701.521 179.166C722.358 179.166 739.245 196.052 739.245 216.889V347.058C739.245 367.895 722.358 384.782 701.521 384.782C680.684 384.782 663.797 367.895 663.797 347.058V216.889C663.797 196.052 680.684 179.166 701.521 179.166Z" fill="#4D4655"/>
<path d="M701.521 179.166C722.358 179.166 739.245 196.052 739.245 216.889V347.058C739.245 367.895 722.358 384.782 701.521 384.782C680.684 384.782 663.797 367.895 663.797 347.058V216.889C663.797 196.052 680.684 179.166 701.521 179.166Z" fill="white" fill-opacity="0.75"/>
<path d="M701.521 179.166C722.358 179.166 739.245 196.052 739.245 216.889V347.058C739.245 367.895 722.358 384.782 701.521 384.782C680.684 384.782 663.797 367.895 663.797 347.058V216.889C663.797 196.052 680.684 179.166 701.521 179.166Z" fill="url(#paint7_linear_1063_4495)" fill-opacity="0.75"/>
<path d="M701.521 179.166C722.358 179.166 739.245 196.052 739.245 216.889V347.058C739.245 367.895 722.358 384.782 701.521 384.782C680.684 384.782 663.797 367.895 663.797 347.058V216.889C663.797 196.052 680.684 179.166 701.521 179.166Z" fill="url(#paint8_linear_1063_4495)" fill-opacity="0.2"/>
<path d="M701.521 182.166C720.701 182.166 736.245 197.709 736.245 216.889V347.058C736.245 366.238 720.701 381.782 701.521 381.782C682.34 381.782 666.797 366.238 666.797 347.058V216.889C666.797 197.709 682.34 182.166 701.521 182.166Z" stroke="white" stroke-opacity="0.5" stroke-width="6"/>
<path fill-rule="evenodd" clip-rule="evenodd" d="M663.383 125.688C663.383 104.854 680.272 87.9641 701.107 87.9641C721.941 87.9641 738.831 104.854 738.831 125.688C738.831 146.522 721.941 163.412 701.107 163.412C680.272 163.412 663.383 146.522 663.383 125.688Z" fill="#4D4655"/>
<path fill-rule="evenodd" clip-rule="evenodd" d="M663.383 125.688C663.383 104.854 680.272 87.9641 701.107 87.9641C721.941 87.9641 738.831 104.854 738.831 125.688C738.831 146.522 721.941 163.412 701.107 163.412C680.272 163.412 663.383 146.522 663.383 125.688Z" fill="white" fill-opacity="0.75"/>
<path fill-rule="evenodd" clip-rule="evenodd" d="M663.383 125.688C663.383 104.854 680.272 87.9641 701.107 87.9641C721.941 87.9641 738.831 104.854 738.831 125.688C738.831 146.522 721.941 163.412 701.107 163.412C680.272 163.412 663.383 146.522 663.383 125.688Z" fill="url(#paint9_linear_1063_4495)" fill-opacity="0.75"/>
<path fill-rule="evenodd" clip-rule="evenodd" d="M663.383 125.688C663.383 104.854 680.272 87.9641 701.107 87.9641C721.941 87.9641 738.831 104.854 738.831 125.688C738.831 146.522 721.941 163.412 701.107 163.412C680.272 163.412 663.383 146.522 663.383 125.688Z" fill="url(#paint10_linear_1063_4495)" fill-opacity="0.2"/>
<path d="M701.106 90.9641C720.284 90.9641 735.831 106.51 735.831 125.688C735.831 144.865 720.284 160.412 701.106 160.412C681.929 160.412 666.383 144.865 666.383 125.688C666.383 106.51 681.929 90.9643 701.106 90.9641Z" stroke="white" stroke-opacity="0.5" stroke-width="6"/>
<path fill-rule="evenodd" clip-rule="evenodd" d="M572.596 125.522C572.596 104.688 589.485 87.7981 610.32 87.7981C631.154 87.7981 648.044 104.688 648.044 125.522C648.044 146.356 631.154 163.246 610.32 163.246C589.485 163.246 572.596 146.356 572.596 125.522Z" fill="#4D4655"/>
<path fill-rule="evenodd" clip-rule="evenodd" d="M572.596 125.522C572.596 104.688 589.485 87.7981 610.32 87.7981C631.154 87.7981 648.044 104.688 648.044 125.522C648.044 146.356 631.154 163.246 610.32 163.246C589.485 163.246 572.596 146.356 572.596 125.522Z" fill="white" fill-opacity="0.75"/>
<path fill-rule="evenodd" clip-rule="evenodd" d="M572.596 125.522C572.596 104.688 589.485 87.7981 610.32 87.7981C631.154 87.7981 648.044 104.688 648.044 125.522C648.044 146.356 631.154 163.246 610.32 163.246C589.485 163.246 572.596 146.356 572.596 125.522Z" fill="url(#paint11_linear_1063_4495)" fill-opacity="0.75"/>
<path fill-rule="evenodd" clip-rule="evenodd" d="M572.596 125.522C572.596 104.688 589.485 87.7981 610.32 87.7981C631.154 87.7981 648.044 104.688 648.044 125.522C648.044 146.356 631.154 163.246 610.32 163.246C589.485 163.246 572.596 146.356 572.596 125.522Z" fill="url(#paint12_linear_1063_4495)" fill-opacity="0.2"/>
<path d="M610.319 90.7981C629.497 90.7981 645.044 106.344 645.044 125.522C645.044 144.699 629.497 160.246 610.319 160.246C591.142 160.246 575.596 144.699 575.596 125.522C575.596 106.344 591.142 90.7983 610.319 90.7981Z" stroke="white" stroke-opacity="0.5" stroke-width="6"/>
<path fill-rule="evenodd" clip-rule="evenodd" d="M854.01 163.189L1052.09 163.19C1061.56 162.049 1069.47 157.908 1075.8 150.767C1082.13 143.626 1085.3 135.283 1085.3 125.738C1085.3 120.735 1084.34 115.922 1082.43 111.3C1080.51 106.679 1077.79 102.599 1074.25 99.0621C1070.71 95.5249 1066.63 92.7992 1062.01 90.8849C1057.39 88.9705 1052.58 88.0134 1047.58 88.0134L862.689 88.013C862.003 88.013 861.318 88.0316 860.633 88.069C859.267 88.1434 857.897 88.1789 856.531 88.1086C831.193 86.8046 805.422 95.8293 786.069 115.183C749.805 151.446 749.805 210.241 786.068 246.504C801.294 261.73 820.492 270.563 840.327 273.003H976.873C979.291 273.003 981.618 273.467 983.852 274.392C986.087 275.317 988.059 276.636 989.77 278.346C991.48 280.056 992.797 282.029 993.724 284.263C994.649 286.498 995.111 288.824 995.111 291.243C995.111 293.661 994.649 295.99 993.724 298.224C992.797 300.459 991.48 302.431 989.77 304.142C988.059 305.851 986.087 307.17 983.852 308.095C981.618 309.021 979.291 309.484 976.872 309.484H889.508C889.48 309.484 889.459 309.509 889.464 309.536C889.469 309.564 889.448 309.589 889.421 309.589H793.262C788.259 309.589 783.447 310.546 778.826 312.46C774.204 314.374 770.125 317.1 766.588 320.637C763.051 324.174 760.325 328.253 758.411 332.875C756.496 337.497 755.539 342.308 755.539 347.311C755.539 352.313 756.496 357.127 758.41 361.748C760.325 366.37 763.051 370.45 766.588 373.987C770.125 377.523 774.204 380.25 778.826 382.164C783.447 384.078 788.259 385.035 793.262 385.035L977.505 385.036C1002.32 385.887 1027.42 376.839 1046.37 357.893C1082.63 321.63 1082.63 262.835 1046.37 226.571C1030.13 210.33 1009.36 201.363 988.132 199.67H854.01C848.974 199.67 844.675 197.889 841.113 194.327C837.552 190.766 835.771 186.467 835.771 181.43C835.771 176.393 837.552 172.093 841.113 168.531C844.675 164.97 848.974 163.189 854.01 163.189Z" fill="#4D4655"/>
<path fill-rule="evenodd" clip-rule="evenodd" d="M854.01 163.189L1052.09 163.19C1061.56 162.049 1069.47 157.908 1075.8 150.767C1082.13 143.626 1085.3 135.283 1085.3 125.738C1085.3 120.735 1084.34 115.922 1082.43 111.3C1080.51 106.679 1077.79 102.599 1074.25 99.0621C1070.71 95.5249 1066.63 92.7992 1062.01 90.8849C1057.39 88.9705 1052.58 88.0134 1047.58 88.0134L862.689 88.013C862.003 88.013 861.318 88.0316 860.633 88.069C859.267 88.1434 857.897 88.1789 856.531 88.1086C831.193 86.8046 805.422 95.8293 786.069 115.183C749.805 151.446 749.805 210.241 786.068 246.504C801.294 261.73 820.492 270.563 840.327 273.003H976.873C979.291 273.003 981.618 273.467 983.852 274.392C986.087 275.317 988.059 276.636 989.77 278.346C991.48 280.056 992.797 282.029 993.724 284.263C994.649 286.498 995.111 288.824 995.111 291.243C995.111 293.661 994.649 295.99 993.724 298.224C992.797 300.459 991.48 302.431 989.77 304.142C988.059 305.851 986.087 307.17 983.852 308.095C981.618 309.021 979.291 309.484 976.872 309.484H889.508C889.48 309.484 889.459 309.509 889.464 309.536C889.469 309.564 889.448 309.589 889.421 309.589H793.262C788.259 309.589 783.447 310.546 778.826 312.46C774.204 314.374 770.125 317.1 766.588 320.637C763.051 324.174 760.325 328.253 758.411 332.875C756.496 337.497 755.539 342.308 755.539 347.311C755.539 352.313 756.496 357.127 758.41 361.748C760.325 366.37 763.051 370.45 766.588 373.987C770.125 377.523 774.204 380.25 778.826 382.164C783.447 384.078 788.259 385.035 793.262 385.035L977.505 385.036C1002.32 385.887 1027.42 376.839 1046.37 357.893C1082.63 321.63 1082.63 262.835 1046.37 226.571C1030.13 210.33 1009.36 201.363 988.132 199.67H854.01C848.974 199.67 844.675 197.889 841.113 194.327C837.552 190.766 835.771 186.467 835.771 181.43C835.771 176.393 837.552 172.093 841.113 168.531C844.675 164.97 848.974 163.189 854.01 163.189Z" fill="white" fill-opacity="0.75"/>
<path fill-rule="evenodd" clip-rule="evenodd" d="M854.01 163.189L1052.09 163.19C1061.56 162.049 1069.47 157.908 1075.8 150.767C1082.13 143.626 1085.3 135.283 1085.3 125.738C1085.3 120.735 1084.34 115.922 1082.43 111.3C1080.51 106.679 1077.79 102.599 1074.25 99.0621C1070.71 95.5249 1066.63 92.7992 1062.01 90.8849C1057.39 88.9705 1052.58 88.0134 1047.58 88.0134L862.689 88.013C862.003 88.013 861.318 88.0316 860.633 88.069C859.267 88.1434 857.897 88.1789 856.531 88.1086C831.193 86.8046 805.422 95.8293 786.069 115.183C749.805 151.446 749.805 210.241 786.068 246.504C801.294 261.73 820.492 270.563 840.327 273.003H976.873C979.291 273.003 981.618 273.467 983.852 274.392C986.087 275.317 988.059 276.636 989.77 278.346C991.48 280.056 992.797 282.029 993.724 284.263C994.649 286.498 995.111 288.824 995.111 291.243C995.111 293.661 994.649 295.99 993.724 298.224C992.797 300.459 991.48 302.431 989.77 304.142C988.059 305.851 986.087 307.17 983.852 308.095C981.618 309.021 979.291 309.484 976.872 309.484H889.508C889.48 309.484 889.459 309.509 889.464 309.536C889.469 309.564 889.448 309.589 889.421 309.589H793.262C788.259 309.589 783.447 310.546 778.826 312.46C774.204 314.374 770.125 317.1 766.588 320.637C763.051 324.174 760.325 328.253 758.411 332.875C756.496 337.497 755.539 342.308 755.539 347.311C755.539 352.313 756.496 357.127 758.41 361.748C760.325 366.37 763.051 370.45 766.588 373.987C770.125 377.523 774.204 380.25 778.826 382.164C783.447 384.078 788.259 385.035 793.262 385.035L977.505 385.036C1002.32 385.887 1027.42 376.839 1046.37 357.893C1082.63 321.63 1082.63 262.835 1046.37 226.571C1030.13 210.33 1009.36 201.363 988.132 199.67H854.01C848.974 199.67 844.675 197.889 841.113 194.327C837.552 190.766 835.771 186.467 835.771 181.43C835.771 176.393 837.552 172.093 841.113 168.531C844.675 164.97 848.974 163.189 854.01 163.189Z" fill="url(#paint13_linear_1063_4495)" fill-opacity="0.75"/>
<path fill-rule="evenodd" clip-rule="evenodd" d="M854.01 163.189L1052.09 163.19C1061.56 162.049 1069.47 157.908 1075.8 150.767C1082.13 143.626 1085.3 135.283 1085.3 125.738C1085.3 120.735 1084.34 115.922 1082.43 111.3C1080.51 106.679 1077.79 102.599 1074.25 99.0621C1070.71 95.5249 1066.63 92.7992 1062.01 90.8849C1057.39 88.9705 1052.58 88.0134 1047.58 88.0134L862.689 88.013C862.003 88.013 861.318 88.0316 860.633 88.069C859.267 88.1434 857.897 88.1789 856.531 88.1086C831.193 86.8046 805.422 95.8293 786.069 115.183C749.805 151.446 749.805 210.241 786.068 246.504C801.294 261.73 820.492 270.563 840.327 273.003H976.873C979.291 273.003 981.618 273.467 983.852 274.392C986.087 275.317 988.059 276.636 989.77 278.346C991.48 280.056 992.797 282.029 993.724 284.263C994.649 286.498 995.111 288.824 995.111 291.243C995.111 293.661 994.649 295.99 993.724 298.224C992.797 300.459 991.48 302.431 989.77 304.142C988.059 305.851 986.087 307.17 983.852 308.095C981.618 309.021 979.291 309.484 976.872 309.484H889.508C889.48 309.484 889.459 309.509 889.464 309.536C889.469 309.564 889.448 309.589 889.421 309.589H793.262C788.259 309.589 783.447 310.546 778.826 312.46C774.204 314.374 770.125 317.1 766.588 320.637C763.051 324.174 760.325 328.253 758.411 332.875C756.496 337.497 755.539 342.308 755.539 347.311C755.539 352.313 756.496 357.127 758.41 361.748C760.325 366.37 763.051 370.45 766.588 373.987C770.125 377.523 774.204 380.25 778.826 382.164C783.447 384.078 788.259 385.035 793.262 385.035L977.505 385.036C1002.32 385.887 1027.42 376.839 1046.37 357.893C1082.63 321.63 1082.63 262.835 1046.37 226.571C1030.13 210.33 1009.36 201.363 988.132 199.67H854.01C848.974 199.67 844.675 197.889 841.113 194.327C837.552 190.766 835.771 186.467 835.771 181.43C835.771 176.393 837.552 172.093 841.113 168.531C844.675 164.97 848.974 163.189 854.01 163.189Z" fill="url(#paint14_linear_1063_4495)" fill-opacity="0.2"/>
<path d="M788.189 117.304C806.918 98.5764 831.851 89.8421 856.377 91.1042C857.892 91.1822 859.379 91.1415 860.797 91.0642C861.427 91.0298 862.057 91.0134 862.688 91.0134H1047.58C1052.18 91.0135 1056.61 91.8925 1060.86 93.656C1065.12 95.4196 1068.87 97.925 1072.13 101.183C1075.18 104.238 1077.58 107.724 1079.32 111.656L1079.66 112.448C1081.42 116.706 1082.3 121.13 1082.3 125.738C1082.3 134.549 1079.4 142.184 1073.55 148.776C1067.75 155.327 1060.56 159.109 1051.89 160.189H854.011C848.178 160.189 843.116 162.286 838.991 166.41C834.867 170.534 832.77 175.598 832.771 181.43C832.77 187.263 834.867 192.324 838.991 196.448C843.116 200.572 848.178 202.67 854.011 202.67H988.008C1008.52 204.331 1028.56 213.003 1044.25 228.692C1079.34 263.784 1079.34 320.68 1044.25 355.771C1025.91 374.105 1001.63 382.861 977.607 382.038L977.556 382.036H977.505L793.262 382.035C788.653 382.035 784.231 381.156 779.974 379.392C775.716 377.629 771.967 375.123 768.709 371.865C765.45 368.607 762.946 364.858 761.183 360.6H761.182C759.418 356.343 758.539 351.919 758.539 347.311C758.539 342.703 759.419 338.281 761.183 334.023C762.946 329.766 765.45 326.017 768.709 322.759C771.967 319.5 775.716 316.995 779.974 315.231C784.231 313.468 788.653 312.589 793.262 312.589H889.421C889.697 312.589 889.963 312.551 890.216 312.483H976.872C979.685 312.483 982.401 311.943 984.999 310.866L985 310.867C987.436 309.858 989.613 308.441 991.514 306.631L991.891 306.263C993.88 304.274 995.418 301.97 996.495 299.373V299.372C997.571 296.773 998.111 294.055 998.111 291.243C998.111 288.431 997.571 285.713 996.495 283.115L996.288 282.631C995.225 280.23 993.756 278.089 991.891 276.224C989.902 274.236 987.599 272.696 985 271.62C982.402 270.544 979.686 270.004 976.873 270.004H840.518C821.685 267.649 803.461 259.34 788.883 245.069L788.189 244.384C753.098 209.291 753.098 152.396 788.189 117.304Z" stroke="white" stroke-opacity="0.5" stroke-width="6"/>
<path fill-rule="evenodd" clip-rule="evenodd" d="M1100.73 125.687C1100.73 115.27 1104.42 106.379 1111.78 99.0129C1119.15 91.6471 1128.04 87.9641 1138.46 87.9641H1138.46C1148.87 87.9641 1157.77 91.6471 1165.13 99.0129C1172.5 106.379 1176.18 115.27 1176.18 125.687V282.803C1176.18 290.129 1178.77 296.382 1183.95 301.563C1189.13 306.743 1195.38 309.333 1202.71 309.333H1203.54C1210.87 309.333 1217.12 306.743 1222.3 301.563C1227.48 296.382 1230.07 290.129 1230.07 282.803V125.687C1230.07 115.27 1233.75 106.379 1241.12 99.0129C1248.49 91.6471 1257.38 87.9641 1267.8 87.9641H1267.8C1278.21 87.9641 1287.1 91.6471 1294.47 99.0129C1301.84 106.379 1305.52 115.27 1305.52 125.687V281.973V282.249V282.388C1305.52 338.938 1259.68 384.781 1203.13 384.781C1146.58 384.781 1100.73 338.938 1100.73 282.388L1100.73 282.249L1100.73 281.973V125.687Z" fill="#4D4655"/>
<path fill-rule="evenodd" clip-rule="evenodd" d="M1100.73 125.687C1100.73 115.27 1104.42 106.379 1111.78 99.0129C1119.15 91.6471 1128.04 87.9641 1138.46 87.9641H1138.46C1148.87 87.9641 1157.77 91.6471 1165.13 99.0129C1172.5 106.379 1176.18 115.27 1176.18 125.687V282.803C1176.18 290.129 1178.77 296.382 1183.95 301.563C1189.13 306.743 1195.38 309.333 1202.71 309.333H1203.54C1210.87 309.333 1217.12 306.743 1222.3 301.563C1227.48 296.382 1230.07 290.129 1230.07 282.803V125.687C1230.07 115.27 1233.75 106.379 1241.12 99.0129C1248.49 91.6471 1257.38 87.9641 1267.8 87.9641H1267.8C1278.21 87.9641 1287.1 91.6471 1294.47 99.0129C1301.84 106.379 1305.52 115.27 1305.52 125.687V281.973V282.249V282.388C1305.52 338.938 1259.68 384.781 1203.13 384.781C1146.58 384.781 1100.73 338.938 1100.73 282.388L1100.73 282.249L1100.73 281.973V125.687Z" fill="white" fill-opacity="0.75"/>
<path fill-rule="evenodd" clip-rule="evenodd" d="M1100.73 125.687C1100.73 115.27 1104.42 106.379 1111.78 99.0129C1119.15 91.6471 1128.04 87.9641 1138.46 87.9641H1138.46C1148.87 87.9641 1157.77 91.6471 1165.13 99.0129C1172.5 106.379 1176.18 115.27 1176.18 125.687V282.803C1176.18 290.129 1178.77 296.382 1183.95 301.563C1189.13 306.743 1195.38 309.333 1202.71 309.333H1203.54C1210.87 309.333 1217.12 306.743 1222.3 301.563C1227.48 296.382 1230.07 290.129 1230.07 282.803V125.687C1230.07 115.27 1233.75 106.379 1241.12 99.0129C1248.49 91.6471 1257.38 87.9641 1267.8 87.9641H1267.8C1278.21 87.9641 1287.1 91.6471 1294.47 99.0129C1301.84 106.379 1305.52 115.27 1305.52 125.687V281.973V282.249V282.388C1305.52 338.938 1259.68 384.781 1203.13 384.781C1146.58 384.781 1100.73 338.938 1100.73 282.388L1100.73 282.249L1100.73 281.973V125.687Z" fill="url(#paint15_linear_1063_4495)" fill-opacity="0.75"/>
<path fill-rule="evenodd" clip-rule="evenodd" d="M1100.73 125.687C1100.73 115.27 1104.42 106.379 1111.78 99.0129C1119.15 91.6471 1128.04 87.9641 1138.46 87.9641H1138.46C1148.87 87.9641 1157.77 91.6471 1165.13 99.0129C1172.5 106.379 1176.18 115.27 1176.18 125.687V282.803C1176.18 290.129 1178.77 296.382 1183.95 301.563C1189.13 306.743 1195.38 309.333 1202.71 309.333H1203.54C1210.87 309.333 1217.12 306.743 1222.3 301.563C1227.48 296.382 1230.07 290.129 1230.07 282.803V125.687C1230.07 115.27 1233.75 106.379 1241.12 99.0129C1248.49 91.6471 1257.38 87.9641 1267.8 87.9641H1267.8C1278.21 87.9641 1287.1 91.6471 1294.47 99.0129C1301.84 106.379 1305.52 115.27 1305.52 125.687V281.973V282.249V282.388C1305.52 338.938 1259.68 384.781 1203.13 384.781C1146.58 384.781 1100.73 338.938 1100.73 282.388L1100.73 282.249L1100.73 281.973V125.687Z" fill="url(#paint16_linear_1063_4495)" fill-opacity="0.2"/>
<path d="M1138.46 90.9641H1138.46C1148.08 90.9641 1156.21 94.331 1163.01 101.134C1169.6 107.725 1172.97 115.559 1173.17 124.789L1173.18 125.688V282.803C1173.18 290.924 1176.09 297.94 1181.83 303.684C1187.57 309.427 1194.59 312.333 1202.71 312.333H1203.54C1211.66 312.333 1218.68 309.427 1224.42 303.685V303.684C1230.17 297.94 1233.07 290.925 1233.07 282.803V125.687C1233.07 116.066 1236.44 107.937 1243.24 101.134C1250.05 94.3311 1258.17 90.9642 1267.79 90.9641H1267.8C1277.42 90.9641 1285.55 94.3308 1292.35 101.134C1299.15 107.937 1302.52 116.066 1302.52 125.687V282.388C1302.52 337.281 1258.02 381.781 1203.13 381.781C1148.23 381.781 1103.73 337.282 1103.73 282.39V125.687C1103.73 116.066 1107.1 107.937 1113.9 101.134C1120.71 94.3308 1128.83 90.9641 1138.46 90.9641Z" stroke="white" stroke-opacity="0.5" stroke-width="6"/>
<defs>
<linearGradient id="paint0_linear_1063_4495" x1="-0.000100029" y1="-38.9417" x2="134.566" y2="442.422" gradientUnits="userSpaceOnUse">
<stop stop-color="#71E0FF"/>
<stop offset="0.211538" stop-color="#68CCFF"/>
<stop offset="0.46927" stop-color="#5E84FF"/>
<stop offset="0.802724" stop-color="#8258FA"/>
<stop offset="1" stop-color="#C56EFF"/>
</linearGradient>
<linearGradient id="paint1_linear_1063_4495" x1="325.612" y1="-32.2541" x2="-16.8345" y2="89.8681" gradientUnits="userSpaceOnUse">
<stop stop-color="#3700DA" stop-opacity="0.1"/>
<stop offset="1" stop-color="#FF00BF" stop-opacity="0.6"/>
</linearGradient>
<linearGradient id="paint2_linear_1063_4495" x1="273.182" y1="64.3338" x2="244.089" y2="77.9779" gradientUnits="userSpaceOnUse">
<stop stop-color="#3700DA" stop-opacity="0.3"/>
<stop offset="1" stop-color="#FF00BF" stop-opacity="0.6"/>
</linearGradient>
<linearGradient id="paint3_linear_1063_4495" x1="169.995" y1="374.984" x2="140.902" y2="388.628" gradientUnits="userSpaceOnUse">
<stop stop-color="#3700DA" stop-opacity="0.3"/>
<stop offset="1" stop-color="#FF00BF" stop-opacity="0.6"/>
</linearGradient>
<linearGradient id="paint4_linear_1063_4495" x1="214.022" y1="184.629" x2="88.2416" y2="235.56" gradientUnits="userSpaceOnUse">
<stop stop-color="#3700DA" stop-opacity="0.3"/>
<stop offset="1" stop-color="#FF00BF" stop-opacity="0.6"/>
</linearGradient>
<linearGradient id="paint5_linear_1063_4495" x1="572.758" y1="161.994" x2="684.937" y2="309.24" gradientUnits="userSpaceOnUse">
<stop stop-color="#00C8FF"/>
<stop offset="0.211538" stop-color="#68CCFF"/>
<stop offset="0.46927" stop-color="#5E84FF"/>
<stop offset="0.802724" stop-color="#8258FA"/>
<stop offset="1" stop-color="#C56EFF"/>
</linearGradient>
<linearGradient id="paint6_linear_1063_4495" x1="627.255" y1="173.838" x2="554.207" y2="191.859" gradientUnits="userSpaceOnUse">
<stop stop-color="#3700DA" stop-opacity="0.1"/>
<stop offset="1" stop-color="#FF00BF" stop-opacity="0.6"/>
</linearGradient>
<linearGradient id="paint7_linear_1063_4495" x1="663.797" y1="161.704" x2="775.976" y2="308.949" gradientUnits="userSpaceOnUse">
<stop stop-color="#00C8FF"/>
<stop offset="0.211538" stop-color="#68CCFF"/>
<stop offset="0.46927" stop-color="#5E84FF"/>
<stop offset="0.802724" stop-color="#8258FA"/>
<stop offset="1" stop-color="#C56EFF"/>
</linearGradient>
<linearGradient id="paint8_linear_1063_4495" x1="718.294" y1="173.548" x2="645.246" y2="191.568" gradientUnits="userSpaceOnUse">
<stop stop-color="#3700DA" stop-opacity="0.1"/>
<stop offset="1" stop-color="#FF00BF" stop-opacity="0.6"/>
</linearGradient>
<linearGradient id="paint9_linear_1063_4495" x1="663.383" y1="81.5569" x2="685.523" y2="160.757" gradientUnits="userSpaceOnUse">
<stop stop-color="#00C8FF"/>
<stop offset="0.211538" stop-color="#68CCFF"/>
<stop offset="0.46927" stop-color="#5E84FF"/>
<stop offset="0.802724" stop-color="#8258FA"/>
<stop offset="1" stop-color="#C56EFF"/>
</linearGradient>
<linearGradient id="paint10_linear_1063_4495" x1="717.88" y1="85.9027" x2="664.51" y2="121.784" gradientUnits="userSpaceOnUse">
<stop stop-color="#3700DA" stop-opacity="0.1"/>
<stop offset="1" stop-color="#FF00BF" stop-opacity="0.6"/>
</linearGradient>
<linearGradient id="paint11_linear_1063_4495" x1="572.596" y1="81.3909" x2="594.736" y2="160.591" gradientUnits="userSpaceOnUse">
<stop stop-color="#00C8FF"/>
<stop offset="0.211538" stop-color="#68CCFF"/>
<stop offset="0.46927" stop-color="#5E84FF"/>
<stop offset="0.802724" stop-color="#8258FA"/>
<stop offset="1" stop-color="#C56EFF"/>
</linearGradient>
<linearGradient id="paint12_linear_1063_4495" x1="627.093" y1="85.7367" x2="573.723" y2="121.618" gradientUnits="userSpaceOnUse">
<stop stop-color="#3700DA" stop-opacity="0.1"/>
<stop offset="1" stop-color="#FF00BF" stop-opacity="0.6"/>
</linearGradient>
<linearGradient id="paint13_linear_1063_4495" x1="755.539" y1="62.7543" x2="835.179" y2="378.95" gradientUnits="userSpaceOnUse">
<stop stop-color="#00C8FF"/>
<stop offset="0.211538" stop-color="#68CCFF"/>
<stop offset="0.46927" stop-color="#5E84FF"/>
<stop offset="0.802724" stop-color="#8258FA"/>
<stop offset="1" stop-color="#C56EFF"/>
</linearGradient>
<linearGradient id="paint14_linear_1063_4495" x1="993.73" y1="79.8674" x2="776.172" y2="242.212" gradientUnits="userSpaceOnUse">
<stop stop-color="#3700DA" stop-opacity="0.1"/>
<stop offset="1" stop-color="#FF00BF" stop-opacity="0.6"/>
</linearGradient>
<linearGradient id="paint15_linear_1063_4495" x1="1100.73" y1="62.7578" x2="1217.65" y2="351.313" gradientUnits="userSpaceOnUse">
<stop stop-color="#00C8FF"/>
<stop offset="0.211538" stop-color="#68CCFF"/>
<stop offset="0.46927" stop-color="#5E84FF"/>
<stop offset="0.802724" stop-color="#8258FA"/>
<stop offset="1" stop-color="#C56EFF"/>
</linearGradient>
<linearGradient id="paint16_linear_1063_4495" x1="1248.65" y1="79.8543" x2="1075.56" y2="160.147" gradientUnits="userSpaceOnUse">
<stop stop-color="#3700DA" stop-opacity="0.1"/>
<stop offset="1" stop-color="#FF00BF" stop-opacity="0.6"/>
</linearGradient>
</defs>
</svg>
